<mxfile host="app.diagrams.net" modified="2023-11-27T10:11:53.625Z" agent="Mozilla/5.0 (Windows NT 10.0; Win64; x64) AppleWebKit/537.36 (KHTML, like Gecko) Chrome/119.0.0.0 Safari/537.36" etag="GSCBSp8KjVV2TfQ8OIK4" version="22.1.4" type="github">
  <diagram name="Page-1" id="Do15Pc9qIlj0_piw9mJM">
    <mxGraphModel dx="1222" dy="686" grid="1" gridSize="10" guides="1" tooltips="1" connect="1" arrows="1" fold="1" page="1" pageScale="1" pageWidth="850" pageHeight="1100" background="#ffffff" math="0" shadow="0">
      <root>
        <mxCell id="0" />
        <mxCell id="1" parent="0" />
        <mxCell id="wugzxEL_MV_7vuM8QhrN-1" value="" style="outlineConnect=0;fontColor=#143642;fillColor=#FAE5C7;strokeColor=none;dashed=0;verticalLabelPosition=bottom;verticalAlign=top;align=center;html=1;fontSize=12;fontStyle=0;aspect=fixed;pointerEvents=1;shape=mxgraph.aws4.user;labelBackgroundColor=none;rounded=0;" parent="1" vertex="1">
          <mxGeometry x="332" y="30" width="50" height="50" as="geometry" />
        </mxCell>
        <mxCell id="wugzxEL_MV_7vuM8QhrN-2" value="" style="outlineConnect=0;fontColor=#143642;fillColor=#FAE5C7;strokeColor=none;dashed=0;verticalLabelPosition=bottom;verticalAlign=top;align=center;html=1;fontSize=12;fontStyle=0;aspect=fixed;pointerEvents=1;shape=mxgraph.aws4.user;labelBackgroundColor=none;rounded=0;" parent="1" vertex="1">
          <mxGeometry x="370" y="6" width="44" height="44" as="geometry" />
        </mxCell>
        <mxCell id="wugzxEL_MV_7vuM8QhrN-3" value="AWS Cloud" style="outlineConnect=0;html=1;whiteSpace=wrap;fontSize=12;fontStyle=0;shape=mxgraph.aws4.group;grIcon=mxgraph.aws4.group_aws_cloud;strokeColor=#0F8B8D;fillColor=none;verticalAlign=top;align=left;spacingLeft=30;fontColor=#143642;dashed=0;strokeWidth=4;labelBackgroundColor=none;rounded=0;" parent="1" vertex="1">
          <mxGeometry x="50" y="170" width="750" height="930" as="geometry" />
        </mxCell>
        <mxCell id="wugzxEL_MV_7vuM8QhrN-4" value="" style="points=[[0,0,0],[0.25,0,0],[0.5,0,0],[0.75,0,0],[1,0,0],[0,1,0],[0.25,1,0],[0.5,1,0],[0.75,1,0],[1,1,0],[0,0.25,0],[0,0.5,0],[0,0.75,0],[1,0.25,0],[1,0.5,0],[1,0.75,0]];outlineConnect=0;fontColor=#143642;fillColor=#FAE5C7;strokeColor=#0F8B8D;dashed=0;verticalLabelPosition=bottom;verticalAlign=top;align=center;html=1;fontSize=12;fontStyle=0;aspect=fixed;shape=mxgraph.aws4.resourceIcon;resIcon=mxgraph.aws4.route_53;labelBackgroundColor=none;rounded=0;" parent="1" vertex="1">
          <mxGeometry x="332" y="120" width="120" height="120" as="geometry" />
        </mxCell>
        <mxCell id="wugzxEL_MV_7vuM8QhrN-5" value="" style="endArrow=classic;html=1;rounded=0;exitX=0.5;exitY=0;exitDx=0;exitDy=0;exitPerimeter=0;strokeWidth=5;labelBackgroundColor=none;strokeColor=#A8201A;fontColor=default;" parent="1" source="wugzxEL_MV_7vuM8QhrN-4" edge="1">
          <mxGeometry width="50" height="50" relative="1" as="geometry">
            <mxPoint x="510" y="380" as="sourcePoint" />
            <mxPoint x="392" y="70" as="targetPoint" />
          </mxGeometry>
        </mxCell>
        <mxCell id="wugzxEL_MV_7vuM8QhrN-25" value="" style="edgeStyle=orthogonalEdgeStyle;rounded=0;orthogonalLoop=1;jettySize=auto;html=1;labelBackgroundColor=none;strokeColor=#A8201A;fontColor=default;" parent="1" source="wugzxEL_MV_7vuM8QhrN-6" target="wugzxEL_MV_7vuM8QhrN-22" edge="1">
          <mxGeometry relative="1" as="geometry" />
        </mxCell>
        <mxCell id="wugzxEL_MV_7vuM8QhrN-6" value="" style="points=[[0,0,0],[0.25,0,0],[0.5,0,0],[0.75,0,0],[1,0,0],[0,1,0],[0.25,1,0],[0.5,1,0],[0.75,1,0],[1,1,0],[0,0.25,0],[0,0.5,0],[0,0.75,0],[1,0.25,0],[1,0.5,0],[1,0.75,0]];outlineConnect=0;fontColor=#143642;fillColor=#FAE5C7;strokeColor=#0F8B8D;dashed=0;verticalLabelPosition=bottom;verticalAlign=top;align=center;html=1;fontSize=12;fontStyle=0;aspect=fixed;shape=mxgraph.aws4.resourceIcon;resIcon=mxgraph.aws4.cloudfront;strokeWidth=1;perimeterSpacing=7;labelBackgroundColor=none;rounded=0;" parent="1" vertex="1">
          <mxGeometry x="332" y="300" width="120" height="120" as="geometry" />
        </mxCell>
        <mxCell id="wugzxEL_MV_7vuM8QhrN-7" value="Region" style="points=[[0,0],[0.25,0],[0.5,0],[0.75,0],[1,0],[1,0.25],[1,0.5],[1,0.75],[1,1],[0.75,1],[0.5,1],[0.25,1],[0,1],[0,0.75],[0,0.5],[0,0.25]];outlineConnect=0;html=1;whiteSpace=wrap;fontSize=12;fontStyle=0;container=1;pointerEvents=0;collapsible=0;recursiveResize=0;shape=mxgraph.aws4.group;grIcon=mxgraph.aws4.group_region;strokeColor=#0F8B8D;fillColor=none;verticalAlign=top;align=left;spacingLeft=30;fontColor=#143642;dashed=1;strokeWidth=5;labelBackgroundColor=none;rounded=0;" parent="1" vertex="1">
          <mxGeometry x="150" y="470" width="520" height="550" as="geometry" />
        </mxCell>
        <mxCell id="wugzxEL_MV_7vuM8QhrN-8" value="" style="points=[[0,0,0],[0.25,0,0],[0.5,0,0],[0.75,0,0],[1,0,0],[0,1,0],[0.25,1,0],[0.5,1,0],[0.75,1,0],[1,1,0],[0,0.25,0],[0,0.5,0],[0,0.75,0],[1,0.25,0],[1,0.5,0],[1,0.75,0]];outlineConnect=0;fontColor=#143642;fillColor=#FAE5C7;strokeColor=#0F8B8D;dashed=0;verticalLabelPosition=bottom;verticalAlign=top;align=center;html=1;fontSize=12;fontStyle=0;aspect=fixed;shape=mxgraph.aws4.resourceIcon;resIcon=mxgraph.aws4.api_gateway;labelBackgroundColor=none;rounded=0;" parent="wugzxEL_MV_7vuM8QhrN-7" vertex="1">
          <mxGeometry x="188" y="20" width="108" height="108" as="geometry" />
        </mxCell>
        <mxCell id="wugzxEL_MV_7vuM8QhrN-29" value="&lt;font style=&quot;font-size: 16px;&quot;&gt;API Gateway&lt;/font&gt;" style="text;html=1;strokeColor=none;fillColor=none;align=center;verticalAlign=middle;whiteSpace=wrap;rounded=0;labelBackgroundColor=none;fontColor=#143642;" parent="wugzxEL_MV_7vuM8QhrN-7" vertex="1">
          <mxGeometry x="320" y="65" width="60" height="30" as="geometry" />
        </mxCell>
        <mxCell id="wugzxEL_MV_7vuM8QhrN-9" value="" style="outlineConnect=0;dashed=0;verticalLabelPosition=bottom;verticalAlign=top;align=center;html=1;shape=mxgraph.aws3.application_load_balancer;fillColor=#FAE5C7;labelBackgroundColor=none;strokeColor=#0F8B8D;fontColor=#143642;rounded=0;" parent="1" vertex="1">
          <mxGeometry x="340" y="660" width="104" height="100" as="geometry" />
        </mxCell>
        <mxCell id="wugzxEL_MV_7vuM8QhrN-10" value="Auto Scaling group" style="points=[[0,0],[0.25,0],[0.5,0],[0.75,0],[1,0],[1,0.25],[1,0.5],[1,0.75],[1,1],[0.75,1],[0.5,1],[0.25,1],[0,1],[0,0.75],[0,0.5],[0,0.25]];outlineConnect=0;html=1;whiteSpace=wrap;fontSize=12;fontStyle=0;container=1;pointerEvents=0;collapsible=0;recursiveResize=0;shape=mxgraph.aws4.groupCenter;grIcon=mxgraph.aws4.group_auto_scaling_group;grStroke=1;strokeColor=#0F8B8D;fillColor=none;verticalAlign=top;align=center;fontColor=#143642;dashed=1;spacingTop=25;labelBackgroundColor=none;rounded=0;" parent="1" vertex="1">
          <mxGeometry x="180" y="800" width="450" height="190" as="geometry" />
        </mxCell>
        <mxCell id="wugzxEL_MV_7vuM8QhrN-11" value="Availability zone" style="outlineConnect=0;html=1;whiteSpace=wrap;fontSize=12;fontStyle=0;shape=mxgraph.aws4.group;grIcon=mxgraph.aws4.group_availability_zone;strokeColor=#0F8B8D;fillColor=none;verticalAlign=top;align=left;spacingLeft=30;fontColor=#143642;dashed=1;labelBackgroundColor=none;rounded=0;" parent="wugzxEL_MV_7vuM8QhrN-10" vertex="1">
          <mxGeometry x="28" y="40" width="130" height="130" as="geometry" />
        </mxCell>
        <mxCell id="wugzxEL_MV_7vuM8QhrN-14" value="Availability zone" style="outlineConnect=0;html=1;whiteSpace=wrap;fontSize=12;fontStyle=0;shape=mxgraph.aws4.group;grIcon=mxgraph.aws4.group_availability_zone;strokeColor=#0F8B8D;fillColor=none;verticalAlign=top;align=left;spacingLeft=30;fontColor=#143642;dashed=1;labelBackgroundColor=none;rounded=0;" parent="wugzxEL_MV_7vuM8QhrN-10" vertex="1">
          <mxGeometry x="300" y="40" width="130" height="130" as="geometry" />
        </mxCell>
        <mxCell id="wugzxEL_MV_7vuM8QhrN-15" value="" style="points=[[0,0,0],[0.25,0,0],[0.5,0,0],[0.75,0,0],[1,0,0],[0,1,0],[0.25,1,0],[0.5,1,0],[0.75,1,0],[1,1,0],[0,0.25,0],[0,0.5,0],[0,0.75,0],[1,0.25,0],[1,0.5,0],[1,0.75,0]];outlineConnect=0;fontColor=#143642;fillColor=#FAE5C7;strokeColor=#0F8B8D;dashed=0;verticalLabelPosition=bottom;verticalAlign=top;align=center;html=1;fontSize=12;fontStyle=0;aspect=fixed;shape=mxgraph.aws4.resourceIcon;resIcon=mxgraph.aws4.ec2;labelBackgroundColor=none;rounded=0;" parent="wugzxEL_MV_7vuM8QhrN-10" vertex="1">
          <mxGeometry x="54" y="82" width="78" height="78" as="geometry" />
        </mxCell>
        <mxCell id="wugzxEL_MV_7vuM8QhrN-16" value="" style="points=[[0,0,0],[0.25,0,0],[0.5,0,0],[0.75,0,0],[1,0,0],[0,1,0],[0.25,1,0],[0.5,1,0],[0.75,1,0],[1,1,0],[0,0.25,0],[0,0.5,0],[0,0.75,0],[1,0.25,0],[1,0.5,0],[1,0.75,0]];outlineConnect=0;fontColor=#143642;fillColor=#FAE5C7;strokeColor=#0F8B8D;dashed=0;verticalLabelPosition=bottom;verticalAlign=top;align=center;html=1;fontSize=12;fontStyle=0;aspect=fixed;shape=mxgraph.aws4.resourceIcon;resIcon=mxgraph.aws4.ec2;labelBackgroundColor=none;rounded=0;" parent="wugzxEL_MV_7vuM8QhrN-10" vertex="1">
          <mxGeometry x="326" y="82" width="78" height="78" as="geometry" />
        </mxCell>
        <mxCell id="wugzxEL_MV_7vuM8QhrN-17" value="&lt;font style=&quot;font-size: 16px;&quot;&gt;&lt;b&gt;ALB&lt;/b&gt;&lt;/font&gt;" style="text;html=1;strokeColor=none;fillColor=none;align=center;verticalAlign=middle;whiteSpace=wrap;rounded=0;strokeWidth=5;labelBackgroundColor=none;fontColor=#143642;" parent="1" vertex="1">
          <mxGeometry x="365" y="770" width="60" height="30" as="geometry" />
        </mxCell>
        <mxCell id="wugzxEL_MV_7vuM8QhrN-18" value="" style="endArrow=classic;startArrow=classic;html=1;rounded=0;entryX=0.5;entryY=1;entryDx=0;entryDy=0;entryPerimeter=0;endSize=11;startSize=11;labelBackgroundColor=none;strokeColor=#A8201A;fontColor=default;" parent="1" source="wugzxEL_MV_7vuM8QhrN-9" target="wugzxEL_MV_7vuM8QhrN-8" edge="1">
          <mxGeometry width="50" height="50" relative="1" as="geometry">
            <mxPoint x="510" y="730" as="sourcePoint" />
            <mxPoint x="560" y="680" as="targetPoint" />
          </mxGeometry>
        </mxCell>
        <mxCell id="wugzxEL_MV_7vuM8QhrN-19" value="" style="endArrow=classic;html=1;rounded=0;endSize=11;startSize=11;entryX=0.5;entryY=0;entryDx=0;entryDy=0;entryPerimeter=0;exitX=0.5;exitY=1;exitDx=0;exitDy=0;exitPerimeter=0;labelBackgroundColor=none;strokeColor=#A8201A;fontColor=default;" parent="1" source="wugzxEL_MV_7vuM8QhrN-6" target="wugzxEL_MV_7vuM8QhrN-8" edge="1">
          <mxGeometry width="50" height="50" relative="1" as="geometry">
            <mxPoint x="510" y="730" as="sourcePoint" />
            <mxPoint x="560" y="680" as="targetPoint" />
          </mxGeometry>
        </mxCell>
        <mxCell id="wugzxEL_MV_7vuM8QhrN-20" value="" style="endArrow=classic;html=1;rounded=0;endSize=11;startSize=11;exitX=0.5;exitY=1;exitDx=0;exitDy=0;exitPerimeter=0;labelBackgroundColor=none;strokeColor=#A8201A;fontColor=default;" parent="1" source="wugzxEL_MV_7vuM8QhrN-4" edge="1">
          <mxGeometry width="50" height="50" relative="1" as="geometry">
            <mxPoint x="402" y="437" as="sourcePoint" />
            <mxPoint x="392" y="300" as="targetPoint" />
          </mxGeometry>
        </mxCell>
        <mxCell id="wugzxEL_MV_7vuM8QhrN-21" value="&lt;b&gt;&lt;font style=&quot;font-size: 14px;&quot;&gt;Users&lt;/font&gt;&lt;/b&gt;" style="text;html=1;strokeColor=none;fillColor=none;align=center;verticalAlign=middle;whiteSpace=wrap;rounded=0;labelBackgroundColor=none;fontColor=#143642;" parent="1" vertex="1">
          <mxGeometry x="414" y="60" width="60" height="30" as="geometry" />
        </mxCell>
        <mxCell id="wugzxEL_MV_7vuM8QhrN-22" value="" style="points=[[0,0,0],[0.25,0,0],[0.5,0,0],[0.75,0,0],[1,0,0],[0,1,0],[0.25,1,0],[0.5,1,0],[0.75,1,0],[1,1,0],[0,0.25,0],[0,0.5,0],[0,0.75,0],[1,0.25,0],[1,0.5,0],[1,0.75,0]];outlineConnect=0;fontColor=#143642;fillColor=#FAE5C7;strokeColor=#0F8B8D;dashed=0;verticalLabelPosition=bottom;verticalAlign=top;align=center;html=1;fontSize=12;fontStyle=0;aspect=fixed;shape=mxgraph.aws4.resourceIcon;resIcon=mxgraph.aws4.certificate_manager_3;labelBackgroundColor=none;rounded=0;" parent="1" vertex="1">
          <mxGeometry x="530" y="300" width="120" height="120" as="geometry" />
        </mxCell>
        <mxCell id="wugzxEL_MV_7vuM8QhrN-23" value="" style="endArrow=classic;startArrow=classic;html=1;rounded=0;entryX=0;entryY=0.5;entryDx=0;entryDy=0;entryPerimeter=0;endSize=11;startSize=11;labelBackgroundColor=none;strokeColor=#A8201A;fontColor=default;" parent="1" target="wugzxEL_MV_7vuM8QhrN-22" edge="1">
          <mxGeometry width="50" height="50" relative="1" as="geometry">
            <mxPoint x="460" y="360" as="sourcePoint" />
            <mxPoint x="444" y="608" as="targetPoint" />
          </mxGeometry>
        </mxCell>
        <mxCell id="wugzxEL_MV_7vuM8QhrN-27" value="&lt;font size=&quot;3&quot;&gt;CloudFront&lt;/font&gt;" style="text;html=1;strokeColor=none;fillColor=none;align=center;verticalAlign=middle;whiteSpace=wrap;rounded=0;labelBackgroundColor=none;fontColor=#143642;" parent="1" vertex="1">
          <mxGeometry x="230" y="330" width="60" height="30" as="geometry" />
        </mxCell>
        <mxCell id="wugzxEL_MV_7vuM8QhrN-28" value="&lt;font style=&quot;font-size: 14px;&quot;&gt;Certificate manager&lt;/font&gt;" style="text;html=1;strokeColor=none;fillColor=none;align=center;verticalAlign=middle;whiteSpace=wrap;rounded=0;labelBackgroundColor=none;fontColor=#143642;" parent="1" vertex="1">
          <mxGeometry x="660" y="330" width="60" height="30" as="geometry" />
        </mxCell>
      </root>
    </mxGraphModel>
  </diagram>
</mxfile>
